# xmcd
#
# Track frame offsets: 
#        225
#        25350
#        40862
#        87967
#        109750
#
# Disc length: 2494 seconds
#
# Revision: 2
# Processed by: cddbd v1.4PL0 Copyright (c) Steve Scherf et al.
# Submitted via: ExactAudioCopy v0.90b4
#
DISCID=3709bb05
DTITLE=Harmonium - Si on avait besoin d'une cinquième saison
DYEAR=1975
DGENRE=
TTITLE0=Vert
TTITLE1=Dixie
TTITLE2=Depuis l'automne
TTITLE3=En pleine face
TTITLE4=Histoire sans paroles
EXTD=
EXTT0=
EXTT1=
EXTT2=
EXTT3=
EXTT4=
PLAYORDER=
